# xmcd
#
# Track frame offsets:
#	150
#	10769
#	21552
#	31928
#	43115
#	53928
#	64684
#	77180
#	87468
#	98079
#	109732
#	120347
#	129788
#	139850
#	150935
#	161474
#	172015
#	187383
#
# Disc length: 2645 seconds
#
# Revision: 1
# Processed by: cddbd v1.5.2PL0 Copyright (c) Steve Scherf et al.
# Submitted via: audiograbber 1.83.01
#
DISCID=e90a5312
DTITLE=Fats Domino - Rare Dominos (Boogie Woogie Baby)
DYEAR=1969
DGENRE=Blues/Rock&Roll
TTITLE0=Don't Lie To Me
TTITLE1=Sometimes I Wonder
TTITLE2=Nobody Loves Me
TTITLE3=Rocking Chair
TTITLE4=Dreaming
TTITLE5=Careless Love
TTITLE6=I've Got Eyes For You
TTITLE7=Right From Wrong
TTITLE8=No No Baby
TTITLE9=My Baby's Gone
TTITLE10=Boogie Woogie Baby
TTITLE11=How Long
TTITLE12=Rose Mary
TTITLE13=Fats Domino Blues
TTITLE14=What's The Matter Baby
TTITLE15=Stay Away
TTITLE16=Don't Leave Me This Way
TTITLE17=Hey La Bas Boogie
EXTD=
EXTT0=
EXTT1=
EXTT2=
EXTT3=
EXTT4=
EXTT5=
EXTT6=
EXTT7=
EXTT8=
EXTT9=
EXTT10=
EXTT11=
EXTT12=
EXTT13=
EXTT14=
EXTT15=
EXTT16=
EXTT17=
PLAYORDER=
